<?xml version="1.0" encoding="utf-8"?>
<svg version="1.1" xmlns="http://www.w3.org/2000/svg" xmlns:xlink="http://www.w3.org/1999/xlink" x="0px" y="0px"
	 viewBox="0 0 1739.5 1739.5" enable-background="new 0 0 1739.5 1739.5" xml:space="preserve">
<g id="_x38_">
	<g id="color_2_">
		<g>
			<g>
				<polygon fill="#FFD700" points="1420.2,1425.7 319.3,1425.7 313.8,1420.2 313.8,319.3 319.3,313.8 1420.2,313.8 1425.7,319.3 
					1425.7,1420.2 				"/>
			</g>
		</g>
		<rect x="785.5" y="1125" fill="#FFFFFF" width="181.1" height="115.2"/>
		<path fill="#FFFFFF" d="M555,595.5v159.1h159.1v-118l32.9-32.9h256.8l32.9,32.9v137.2c-12.9,12.9-20.1,20.1-32.9,32.9H884.2
			l-87.8,87.8v142.7h159.1V935.7l32.9-32.9h119.6l87.8-87.8V595.5l-87.8-87.8H642.8L555,595.5z"/>
		<path fill="#FFFFFF" d="M544,584.5v181.1h181.1v-118l32.9-32.9h234.8l32.9,32.9v115.2c-12.9,12.9-20.1,20.1-32.9,32.9H873.3
			l-87.8,98.8v153.6h181.1V946.7l32.9-32.9h119.6l87.8-87.8V584.5l-87.8-87.8H631.8L544,584.5z"/>
		<g>
			<circle fill="#BE9B00" cx="447.5" cy="447.5" r="43.9"/>
		</g>
		<g>
			<circle fill="#BE9B00" cx="1292" cy="447.5" r="43.9"/>
		</g>
		<g>
			<circle fill="#BE9B00" cx="447.5" cy="1292" r="43.9"/>
		</g>
		<g>
			<circle fill="#BE9B00" cx="1292" cy="1292" r="43.9"/>
		</g>
	</g>
	<g id="line_2_">
		<g>
			<path fill="#150301" d="M1445.6,322.8l-29.6-29.6H324.7c-0.7,0-1.4,0.3-1.9,0.8l-28.8,28.8c-0.5,0.5-0.8,1.2-0.8,1.9v1090.1
				c0,0.7,0.3,1.4,0.8,1.9l28.8,28.8c0.5,0.5,1.2,0.8,1.9,0.8h1090.1c0.7,0,1.4-0.3,1.9-0.8l28.8-28.8c0.5-0.5,0.8-1.2,0.8-1.9
				V324.7C1446.4,324,1446.1,323.3,1445.6,322.8z M1403.8,1397.2c0,0.7-0.3,1.4-0.8,1.9l-3.9,3.9c-0.5,0.5-1.2,0.8-1.9,0.8H342.3
				c-0.7,0-1.4-0.3-1.9-0.8l-3.9-3.9c-0.5-0.5-0.8-1.2-0.8-1.9V342.3c0-0.7,0.3-1.4,0.8-1.9l3.9-3.9c0.5-0.5,1.2-0.8,1.9-0.8h1056
				l4.7,4.7c0.5,0.5,0.8,1.2,0.8,1.9V1397.2z M983.8,1105H768.2c-1.5,0-2.7,1.2-2.7,2.7v149.7c0,1.5,1.2,2.7,2.7,2.7h215.6
				c1.5,0,2.7-1.2,2.7-2.7v-149.7C986.5,1106.2,985.3,1105,983.8,1105z M955.6,1226.5c0,1.5-1.2,2.7-2.7,2.7H799.2
				c-1.5,0-2.7-1.2-2.7-2.7v-87.8c0-1.5,1.2-2.7,2.7-2.7h153.6c1.5,0,2.7,1.2,2.7,2.7V1226.5z M1121.7,477.6
				c-0.5-0.5-1.2-0.8-1.9-0.8H631.1c-0.7,0-1.4,0.3-1.9,0.8L524.8,581.9c-0.5,0.5-0.8,1.2-0.8,1.9v199c0,1.5,1.2,2.7,2.7,2.7h215.6
				c1.5,0,2.7-1.2,2.7-2.7V650.6c0-0.7,0.3-1.4,0.8-1.9l13.2-13.2c0.5-0.5,1.2-0.8,1.9-0.8h228.9c0.7,0,1.4,0.3,1.9,0.8l13.2,13.2
				c0.5,0.5,0.8,1.2,0.8,1.9V761l-0.6,0.6L991.8,775c-0.5,0.5-1.2,0.8-1.9,0.8H872.5c-0.7,0-1.4,0.3-1.9,0.8L766.3,880.9
				c-0.5,0.5-0.8,1.2-0.8,1.9v182.6c0,1.5,1.2,2.7,2.7,2.7h215.6c1.5,0,2.7-1.2,2.7-2.7V949.7c0-0.7,0.3-1.4,0.8-1.9l13.2-13.2
				c0.5-0.5,1.2-0.8,1.9-0.8h117.3c0.7,0,1.4-0.3,1.9-0.8l104.3-104.3c0.5-0.5,0.8-1.2,0.8-1.9V583.8c0-0.7-0.3-1.4-0.8-1.9
				L1121.7,477.6z M1195.9,813.9c0,0.7-0.3,1.4-0.8,1.9l-86.2,86.2c-0.5,0.5-1.2,0.8-1.9,0.8H989.6c-0.7,0-1.4,0.3-1.9,0.8
				l-31.3,31.3c-0.5,0.5-0.8,1.2-0.8,1.9v97.6c0,1.5-1.2,2.7-2.7,2.7H799.2c-1.5,0-2.7-1.2-2.7-2.7V895.7c0-0.7,0.3-1.4,0.8-1.9
				l86.2-86.2c0.5-0.5,1.2-0.8,1.9-0.8h117.3c0.7,0,1.4-0.3,1.9-0.8l31.3-31.3c0.5-0.5,0.8-1.2,0.8-1.9V637.8c0-0.7-0.3-1.4-0.8-1.9
				l-31.3-31.3c-0.5-0.5-1.2-0.8-1.9-0.8H748.2c-0.7,0-1.4,0.3-1.9,0.8l-31.3,31.3c-0.5,0.5-0.8,1.2-0.8,1.9v114.1
				c0,1.5-1.2,2.7-2.7,2.7H557.8c-1.5,0-2.7-1.2-2.7-2.7V596.7c0-0.7,0.3-1.4,0.8-1.9l86.2-86.2c0.5-0.5,1.2-0.8,1.9-0.8h463
				c0.7,0,1.4,0.3,1.9,0.8l86.2,86.2c0.5,0.5,0.8,1.2,0.8,1.9V813.9z M447.5,394.8c-14.5,0-27.7,5.9-37.2,15.4
				c-9.5,9.5-15.4,22.7-15.4,37.2c0,29.1,23.6,52.7,52.7,52.7c14.5,0,27.7-5.9,37.2-15.4s15.4-22.7,15.4-37.2
				C500.2,418.4,476.5,394.8,447.5,394.8z M468.3,468.3c-5.3,5.3-12.7,8.6-20.8,8.6c-16.3,0-29.5-13.2-29.5-29.5
				c0-8.1,3.3-15.5,8.6-20.8s12.7-8.6,20.8-8.6c16.3,0,29.5,13.2,29.5,29.5C476.9,455.6,473.6,463,468.3,468.3z M1292,394.8
				c-14.5,0-27.7,5.9-37.2,15.4c-9.5,9.5-15.4,22.7-15.4,37.2c0,29.1,23.6,52.7,52.7,52.7c14.5,0,27.7-5.9,37.2-15.4
				c9.5-9.5,15.4-22.7,15.4-37.2C1344.7,418.4,1321.1,394.8,1292,394.8z M1312.9,468.3c-5.3,5.3-12.7,8.6-20.8,8.6
				c-16.3,0-29.5-13.2-29.5-29.5c0-8.1,3.3-15.5,8.6-20.8c5.3-5.3,12.7-8.6,20.8-8.6c16.3,0,29.5,13.2,29.5,29.5
				C1321.5,455.6,1318.2,463,1312.9,468.3z M447.5,1239.3c-14.5,0-27.7,5.9-37.2,15.4c-9.5,9.5-15.4,22.7-15.4,37.2
				c0,29.1,23.6,52.7,52.7,52.7c14.5,0,27.7-5.9,37.2-15.4c9.5-9.5,15.4-22.7,15.4-37.2C500.2,1263,476.5,1239.3,447.5,1239.3z
				 M468.3,1312.9c-5.3,5.3-12.7,8.6-20.8,8.6c-16.3,0-29.5-13.2-29.5-29.5c0-8.1,3.3-15.5,8.6-20.8s12.7-8.6,20.8-8.6
				c16.3,0,29.5,13.2,29.5,29.5C476.9,1300.2,473.6,1307.5,468.3,1312.9z M1292,1239.3c-14.5,0-27.7,5.9-37.2,15.4
				c-9.5,9.5-15.4,22.7-15.4,37.2c0,29.1,23.6,52.7,52.7,52.7c14.5,0,27.7-5.9,37.2-15.4c9.5-9.5,15.4-22.7,15.4-37.2
				C1344.7,1263,1321.1,1239.3,1292,1239.3z M1312.9,1312.9c-5.3,5.3-12.7,8.6-20.8,8.6c-16.3,0-29.5-13.2-29.5-29.5
				c0-8.1,3.3-15.5,8.6-20.8c5.3-5.3,12.7-8.6,20.8-8.6c16.3,0,29.5,13.2,29.5,29.5C1321.5,1300.2,1318.2,1307.5,1312.9,1312.9z"/>
		</g>
	</g>
</g>
</svg>
